<svg xmlns="http://www.w3.org/2000/svg" xmlns:xlink="http://www.w3.org/1999/xlink" width="500" zoomAndPan="magnify" viewBox="0 0 375 374.999991" height="500" preserveAspectRatio="xMidYMid meet" version="1.0"><defs><clipPath id="1dd240ca90"><path d="M 112.5 224 L 262.5 224 L 262.5 252.40625 L 112.5 252.40625 Z M 112.5 224 " clip-rule="nonzero"/></clipPath><clipPath id="6ebd0f6fcc"><path d="M 112.5 173 L 262.5 173 L 262.5 202 L 112.5 202 Z M 112.5 173 " clip-rule="nonzero"/></clipPath><clipPath id="ddd2b4c970"><path d="M 112.5 122.65625 L 262.5 122.65625 L 262.5 151 L 112.5 151 Z M 112.5 122.65625 " clip-rule="nonzero"/></clipPath></defs><g clip-path="url(#1dd240ca90)"><path fill="#ffffff" d="M 248.464844 252.378906 L 126.535156 252.378906 C 118.804688 252.378906 112.5 246.074219 112.5 238.34375 C 112.5 230.613281 118.804688 224.308594 126.535156 224.308594 L 248.464844 224.308594 C 256.195312 224.308594 262.5 230.613281 262.5 238.34375 C 262.5 246.074219 256.195312 252.378906 248.464844 252.378906 Z M 126.535156 231.9375 C 123 231.9375 120.128906 234.808594 120.128906 238.34375 C 120.128906 241.878906 123 244.75 126.535156 244.75 L 248.464844 244.75 C 252 244.75 254.871094 241.878906 254.871094 238.34375 C 254.871094 234.808594 252 231.9375 248.464844 231.9375 Z M 126.535156 231.9375 " fill-opacity="1" fill-rule="nonzero"/></g><g clip-path="url(#6ebd0f6fcc)"><path fill="#ffffff" d="M 248.464844 201.53125 L 126.535156 201.53125 C 118.804688 201.53125 112.5 195.226562 112.5 187.496094 C 112.5 179.765625 118.804688 173.460938 126.535156 173.460938 L 248.464844 173.460938 C 256.195312 173.460938 262.5 179.765625 262.5 187.496094 C 262.5 195.226562 256.195312 201.53125 248.464844 201.53125 Z M 126.535156 181.089844 C 123 181.089844 120.128906 183.960938 120.128906 187.496094 C 120.128906 191.03125 123 193.902344 126.535156 193.902344 L 248.464844 193.902344 C 252 193.902344 254.871094 191.03125 254.871094 187.496094 C 254.871094 183.960938 252 181.089844 248.464844 181.089844 Z M 126.535156 181.089844 " fill-opacity="1" fill-rule="nonzero"/></g><g clip-path="url(#ddd2b4c970)"><path fill="#ffffff" d="M 248.464844 150.683594 L 126.535156 150.683594 C 118.804688 150.683594 112.5 144.378906 112.5 136.648438 C 112.5 128.917969 118.804688 122.613281 126.535156 122.613281 L 248.464844 122.613281 C 256.195312 122.613281 262.5 128.917969 262.5 136.648438 C 262.5 144.378906 256.195312 150.683594 248.464844 150.683594 Z M 126.535156 130.242188 C 123 130.242188 120.128906 133.113281 120.128906 136.648438 C 120.128906 140.183594 123 143.054688 126.535156 143.054688 L 248.464844 143.054688 C 252 143.054688 254.871094 140.183594 254.871094 136.648438 C 254.871094 133.113281 252 130.242188 248.464844 130.242188 Z M 126.535156 130.242188 " fill-opacity="1" fill-rule="nonzero"/></g></svg>